<mxfile host="app.diagrams.net" modified="2022-03-05T05:08:20.722Z" agent="5.0 (Windows NT 10.0; Win64; x64) AppleWebKit/537.36 (KHTML, like Gecko) Chrome/99.0.4844.51 Safari/537.36" etag="BwbCYqy6zjoN3ON8NSZN" version="16.6.4" type="github">
  <diagram id="Cn8QrA9e1e7Hb1tPUdhE" name="Page-1">
    <mxGraphModel dx="2310" dy="770" grid="1" gridSize="10" guides="1" tooltips="1" connect="1" arrows="1" fold="1" page="1" pageScale="1" pageWidth="827" pageHeight="1169" math="0" shadow="0">
      <root>
        <mxCell id="0" />
        <mxCell id="1" parent="0" />
        <mxCell id="4KUUrjR7wUPR5Dd_-c16-122" value="" style="edgeStyle=entityRelationEdgeStyle;fontSize=12;html=1;endArrow=ERoneToMany;rounded=0;exitX=0;exitY=0.5;exitDx=0;exitDy=0;entryX=1;entryY=0.5;entryDx=0;entryDy=0;" parent="1" source="PuS1e93DzxdC0OhlP6du-3" target="4KUUrjR7wUPR5Dd_-c16-17" edge="1">
          <mxGeometry width="100" height="100" relative="1" as="geometry">
            <mxPoint x="360" y="320" as="sourcePoint" />
            <mxPoint x="460" y="220" as="targetPoint" />
          </mxGeometry>
        </mxCell>
        <mxCell id="4KUUrjR7wUPR5Dd_-c16-151" value="" style="edgeStyle=entityRelationEdgeStyle;fontSize=12;html=1;endArrow=ERone;endFill=1;rounded=0;" parent="1" source="4KUUrjR7wUPR5Dd_-c16-36" target="PuS1e93DzxdC0OhlP6du-3" edge="1">
          <mxGeometry width="100" height="100" relative="1" as="geometry">
            <mxPoint x="290" y="425" as="sourcePoint" />
            <mxPoint x="810" y="125" as="targetPoint" />
          </mxGeometry>
        </mxCell>
        <mxCell id="PuS1e93DzxdC0OhlP6du-1" value="mkd-blog DB Schema" style="text;html=1;strokeColor=none;fillColor=none;align=center;verticalAlign=middle;whiteSpace=wrap;rounded=0;fontSize=32;fontFamily=monospace;fontSource=https%3A%2F%2Ffonts.googleapis.com%2Fcss%3Ffamily%3Dmonospace;fontStyle=1" parent="1" vertex="1">
          <mxGeometry x="273.5" y="10" width="340" height="30" as="geometry" />
        </mxCell>
        <mxCell id="PuS1e93DzxdC0OhlP6du-2" value="User Details" style="shape=table;startSize=30;container=1;collapsible=1;childLayout=tableLayout;fixedRows=1;rowLines=0;fontStyle=1;align=center;resizeLast=1;fontFamily=monospace;fontSource=https%3A%2F%2Ffonts.googleapis.com%2Fcss%3Ffamily%3Dmonospace;fontSize=12;strokeColor=default;swimlaneFillColor=default;" parent="1" vertex="1">
          <mxGeometry x="790" y="80" width="154" height="360" as="geometry" />
        </mxCell>
        <mxCell id="PuS1e93DzxdC0OhlP6du-3" value="" style="shape=partialRectangle;collapsible=0;dropTarget=0;pointerEvents=0;fillColor=none;top=0;left=0;bottom=1;right=0;points=[[0,0.5],[1,0.5]];portConstraint=eastwest;fontFamily=monospace;fontSource=https%3A%2F%2Ffonts.googleapis.com%2Fcss%3Ffamily%3Dmonospace;fontSize=20;" parent="PuS1e93DzxdC0OhlP6du-2" vertex="1">
          <mxGeometry y="30" width="154" height="30" as="geometry" />
        </mxCell>
        <mxCell id="PuS1e93DzxdC0OhlP6du-4" value="PK" style="shape=partialRectangle;connectable=0;fillColor=none;top=0;left=0;bottom=0;right=0;fontStyle=1;overflow=hidden;fontFamily=monospace;fontSource=https%3A%2F%2Ffonts.googleapis.com%2Fcss%3Ffamily%3Dmonospace;fontSize=12;" parent="PuS1e93DzxdC0OhlP6du-3" vertex="1">
          <mxGeometry width="30" height="30" as="geometry">
            <mxRectangle width="30" height="30" as="alternateBounds" />
          </mxGeometry>
        </mxCell>
        <mxCell id="PuS1e93DzxdC0OhlP6du-5" value="userid" style="shape=partialRectangle;connectable=0;fillColor=none;top=0;left=0;bottom=0;right=0;align=left;spacingLeft=6;fontStyle=5;overflow=hidden;fontFamily=monospace;fontSource=https%3A%2F%2Ffonts.googleapis.com%2Fcss%3Ffamily%3Dmonospace;fontSize=12;" parent="PuS1e93DzxdC0OhlP6du-3" vertex="1">
          <mxGeometry x="30" width="124" height="30" as="geometry">
            <mxRectangle width="124" height="30" as="alternateBounds" />
          </mxGeometry>
        </mxCell>
        <mxCell id="PuS1e93DzxdC0OhlP6du-6" value="" style="shape=partialRectangle;collapsible=0;dropTarget=0;pointerEvents=0;fillColor=none;top=0;left=0;bottom=0;right=0;points=[[0,0.5],[1,0.5]];portConstraint=eastwest;fontFamily=monospace;fontSource=https%3A%2F%2Ffonts.googleapis.com%2Fcss%3Ffamily%3Dmonospace;fontSize=20;" parent="PuS1e93DzxdC0OhlP6du-2" vertex="1">
          <mxGeometry y="60" width="154" height="30" as="geometry" />
        </mxCell>
        <mxCell id="PuS1e93DzxdC0OhlP6du-7" value="" style="shape=partialRectangle;connectable=0;fillColor=none;top=0;left=0;bottom=0;right=0;editable=1;overflow=hidden;fontFamily=monospace;fontSource=https%3A%2F%2Ffonts.googleapis.com%2Fcss%3Ffamily%3Dmonospace;fontSize=20;" parent="PuS1e93DzxdC0OhlP6du-6" vertex="1">
          <mxGeometry width="30" height="30" as="geometry">
            <mxRectangle width="30" height="30" as="alternateBounds" />
          </mxGeometry>
        </mxCell>
        <mxCell id="PuS1e93DzxdC0OhlP6du-8" value="Full Name" style="shape=partialRectangle;connectable=0;fillColor=none;top=0;left=0;bottom=0;right=0;align=left;spacingLeft=6;overflow=hidden;fontFamily=monospace;fontSource=https%3A%2F%2Ffonts.googleapis.com%2Fcss%3Ffamily%3Dmonospace;fontSize=12;" parent="PuS1e93DzxdC0OhlP6du-6" vertex="1">
          <mxGeometry x="30" width="124" height="30" as="geometry">
            <mxRectangle width="124" height="30" as="alternateBounds" />
          </mxGeometry>
        </mxCell>
        <mxCell id="PuS1e93DzxdC0OhlP6du-9" value="" style="shape=partialRectangle;collapsible=0;dropTarget=0;pointerEvents=0;fillColor=none;top=0;left=0;bottom=0;right=0;points=[[0,0.5],[1,0.5]];portConstraint=eastwest;fontFamily=monospace;fontSource=https%3A%2F%2Ffonts.googleapis.com%2Fcss%3Ffamily%3Dmonospace;fontSize=20;" parent="PuS1e93DzxdC0OhlP6du-2" vertex="1">
          <mxGeometry y="90" width="154" height="30" as="geometry" />
        </mxCell>
        <mxCell id="PuS1e93DzxdC0OhlP6du-10" value="" style="shape=partialRectangle;connectable=0;fillColor=none;top=0;left=0;bottom=0;right=0;editable=1;overflow=hidden;fontFamily=monospace;fontSource=https%3A%2F%2Ffonts.googleapis.com%2Fcss%3Ffamily%3Dmonospace;fontSize=20;" parent="PuS1e93DzxdC0OhlP6du-9" vertex="1">
          <mxGeometry width="30" height="30" as="geometry">
            <mxRectangle width="30" height="30" as="alternateBounds" />
          </mxGeometry>
        </mxCell>
        <mxCell id="PuS1e93DzxdC0OhlP6du-11" value="Username" style="shape=partialRectangle;connectable=0;fillColor=none;top=0;left=0;bottom=0;right=0;align=left;spacingLeft=6;overflow=hidden;fontFamily=monospace;fontSource=https%3A%2F%2Ffonts.googleapis.com%2Fcss%3Ffamily%3Dmonospace;fontSize=12;" parent="PuS1e93DzxdC0OhlP6du-9" vertex="1">
          <mxGeometry x="30" width="124" height="30" as="geometry">
            <mxRectangle width="124" height="30" as="alternateBounds" />
          </mxGeometry>
        </mxCell>
        <mxCell id="PuS1e93DzxdC0OhlP6du-12" value="" style="shape=partialRectangle;collapsible=0;dropTarget=0;pointerEvents=0;fillColor=none;top=0;left=0;bottom=0;right=0;points=[[0,0.5],[1,0.5]];portConstraint=eastwest;fontFamily=monospace;fontSource=https%3A%2F%2Ffonts.googleapis.com%2Fcss%3Ffamily%3Dmonospace;fontSize=20;" parent="PuS1e93DzxdC0OhlP6du-2" vertex="1">
          <mxGeometry y="120" width="154" height="30" as="geometry" />
        </mxCell>
        <mxCell id="PuS1e93DzxdC0OhlP6du-13" value="" style="shape=partialRectangle;connectable=0;fillColor=none;top=0;left=0;bottom=0;right=0;editable=1;overflow=hidden;fontFamily=monospace;fontSource=https%3A%2F%2Ffonts.googleapis.com%2Fcss%3Ffamily%3Dmonospace;fontSize=20;" parent="PuS1e93DzxdC0OhlP6du-12" vertex="1">
          <mxGeometry width="30" height="30" as="geometry">
            <mxRectangle width="30" height="30" as="alternateBounds" />
          </mxGeometry>
        </mxCell>
        <mxCell id="PuS1e93DzxdC0OhlP6du-14" value="email" style="shape=partialRectangle;connectable=0;fillColor=none;top=0;left=0;bottom=0;right=0;align=left;spacingLeft=6;overflow=hidden;fontFamily=monospace;fontSource=https%3A%2F%2Ffonts.googleapis.com%2Fcss%3Ffamily%3Dmonospace;fontSize=12;" parent="PuS1e93DzxdC0OhlP6du-12" vertex="1">
          <mxGeometry x="30" width="124" height="30" as="geometry">
            <mxRectangle width="124" height="30" as="alternateBounds" />
          </mxGeometry>
        </mxCell>
        <mxCell id="4KUUrjR7wUPR5Dd_-c16-4" style="shape=partialRectangle;collapsible=0;dropTarget=0;pointerEvents=0;fillColor=none;top=0;left=0;bottom=0;right=0;points=[[0,0.5],[1,0.5]];portConstraint=eastwest;fontFamily=monospace;fontSource=https%3A%2F%2Ffonts.googleapis.com%2Fcss%3Ffamily%3Dmonospace;fontSize=20;" parent="PuS1e93DzxdC0OhlP6du-2" vertex="1">
          <mxGeometry y="150" width="154" height="30" as="geometry" />
        </mxCell>
        <mxCell id="4KUUrjR7wUPR5Dd_-c16-5" style="shape=partialRectangle;connectable=0;fillColor=none;top=0;left=0;bottom=0;right=0;editable=1;overflow=hidden;fontFamily=monospace;fontSource=https%3A%2F%2Ffonts.googleapis.com%2Fcss%3Ffamily%3Dmonospace;fontSize=20;" parent="4KUUrjR7wUPR5Dd_-c16-4" vertex="1">
          <mxGeometry width="30" height="30" as="geometry">
            <mxRectangle width="30" height="30" as="alternateBounds" />
          </mxGeometry>
        </mxCell>
        <mxCell id="4KUUrjR7wUPR5Dd_-c16-6" value="Bio" style="shape=partialRectangle;connectable=0;fillColor=none;top=0;left=0;bottom=0;right=0;align=left;spacingLeft=6;overflow=hidden;fontFamily=monospace;fontSource=https%3A%2F%2Ffonts.googleapis.com%2Fcss%3Ffamily%3Dmonospace;fontSize=12;" parent="4KUUrjR7wUPR5Dd_-c16-4" vertex="1">
          <mxGeometry x="30" width="124" height="30" as="geometry">
            <mxRectangle width="124" height="30" as="alternateBounds" />
          </mxGeometry>
        </mxCell>
        <mxCell id="4KUUrjR7wUPR5Dd_-c16-7" style="shape=partialRectangle;collapsible=0;dropTarget=0;pointerEvents=0;fillColor=none;top=0;left=0;bottom=0;right=0;points=[[0,0.5],[1,0.5]];portConstraint=eastwest;fontFamily=monospace;fontSource=https%3A%2F%2Ffonts.googleapis.com%2Fcss%3Ffamily%3Dmonospace;fontSize=20;" parent="PuS1e93DzxdC0OhlP6du-2" vertex="1">
          <mxGeometry y="180" width="154" height="30" as="geometry" />
        </mxCell>
        <mxCell id="4KUUrjR7wUPR5Dd_-c16-8" style="shape=partialRectangle;connectable=0;fillColor=none;top=0;left=0;bottom=0;right=0;editable=1;overflow=hidden;fontFamily=monospace;fontSource=https%3A%2F%2Ffonts.googleapis.com%2Fcss%3Ffamily%3Dmonospace;fontSize=20;" parent="4KUUrjR7wUPR5Dd_-c16-7" vertex="1">
          <mxGeometry width="30" height="30" as="geometry">
            <mxRectangle width="30" height="30" as="alternateBounds" />
          </mxGeometry>
        </mxCell>
        <mxCell id="4KUUrjR7wUPR5Dd_-c16-9" value="Links" style="shape=partialRectangle;connectable=0;fillColor=none;top=0;left=0;bottom=0;right=0;align=left;spacingLeft=6;overflow=hidden;fontFamily=monospace;fontSource=https%3A%2F%2Ffonts.googleapis.com%2Fcss%3Ffamily%3Dmonospace;fontSize=12;" parent="4KUUrjR7wUPR5Dd_-c16-7" vertex="1">
          <mxGeometry x="30" width="124" height="30" as="geometry">
            <mxRectangle width="124" height="30" as="alternateBounds" />
          </mxGeometry>
        </mxCell>
        <mxCell id="iw7bIbBuJg9i7qL4mxyv-1" style="shape=partialRectangle;collapsible=0;dropTarget=0;pointerEvents=0;fillColor=none;top=0;left=0;bottom=0;right=0;points=[[0,0.5],[1,0.5]];portConstraint=eastwest;fontFamily=monospace;fontSource=https%3A%2F%2Ffonts.googleapis.com%2Fcss%3Ffamily%3Dmonospace;fontSize=20;" parent="PuS1e93DzxdC0OhlP6du-2" vertex="1">
          <mxGeometry y="210" width="154" height="30" as="geometry" />
        </mxCell>
        <mxCell id="iw7bIbBuJg9i7qL4mxyv-2" style="shape=partialRectangle;connectable=0;fillColor=none;top=0;left=0;bottom=0;right=0;editable=1;overflow=hidden;fontFamily=monospace;fontSource=https%3A%2F%2Ffonts.googleapis.com%2Fcss%3Ffamily%3Dmonospace;fontSize=20;" parent="iw7bIbBuJg9i7qL4mxyv-1" vertex="1">
          <mxGeometry width="30" height="30" as="geometry">
            <mxRectangle width="30" height="30" as="alternateBounds" />
          </mxGeometry>
        </mxCell>
        <mxCell id="iw7bIbBuJg9i7qL4mxyv-3" value="Image" style="shape=partialRectangle;connectable=0;fillColor=none;top=0;left=0;bottom=0;right=0;align=left;spacingLeft=6;overflow=hidden;fontFamily=monospace;fontSource=https%3A%2F%2Ffonts.googleapis.com%2Fcss%3Ffamily%3Dmonospace;fontSize=12;" parent="iw7bIbBuJg9i7qL4mxyv-1" vertex="1">
          <mxGeometry x="30" width="124" height="30" as="geometry">
            <mxRectangle width="124" height="30" as="alternateBounds" />
          </mxGeometry>
        </mxCell>
        <mxCell id="PuS1e93DzxdC0OhlP6du-15" style="shape=partialRectangle;collapsible=0;dropTarget=0;pointerEvents=0;fillColor=none;top=0;left=0;bottom=0;right=0;points=[[0,0.5],[1,0.5]];portConstraint=eastwest;fontFamily=monospace;fontSource=https%3A%2F%2Ffonts.googleapis.com%2Fcss%3Ffamily%3Dmonospace;fontSize=20;" parent="PuS1e93DzxdC0OhlP6du-2" vertex="1">
          <mxGeometry y="240" width="154" height="30" as="geometry" />
        </mxCell>
        <mxCell id="PuS1e93DzxdC0OhlP6du-16" style="shape=partialRectangle;connectable=0;fillColor=none;top=0;left=0;bottom=0;right=0;editable=1;overflow=hidden;fontFamily=monospace;fontSource=https%3A%2F%2Ffonts.googleapis.com%2Fcss%3Ffamily%3Dmonospace;fontSize=20;" parent="PuS1e93DzxdC0OhlP6du-15" vertex="1">
          <mxGeometry width="30" height="30" as="geometry">
            <mxRectangle width="30" height="30" as="alternateBounds" />
          </mxGeometry>
        </mxCell>
        <mxCell id="PuS1e93DzxdC0OhlP6du-17" value="Hashed Password" style="shape=partialRectangle;connectable=0;fillColor=none;top=0;left=0;bottom=0;right=0;align=left;spacingLeft=6;overflow=hidden;fontFamily=monospace;fontSource=https%3A%2F%2Ffonts.googleapis.com%2Fcss%3Ffamily%3Dmonospace;fontSize=12;" parent="PuS1e93DzxdC0OhlP6du-15" vertex="1">
          <mxGeometry x="30" width="124" height="30" as="geometry">
            <mxRectangle width="124" height="30" as="alternateBounds" />
          </mxGeometry>
        </mxCell>
        <mxCell id="OnMkHw86zRBNzj9uOMJL-1" style="shape=partialRectangle;collapsible=0;dropTarget=0;pointerEvents=0;fillColor=none;top=0;left=0;bottom=0;right=0;points=[[0,0.5],[1,0.5]];portConstraint=eastwest;fontFamily=monospace;fontSource=https%3A%2F%2Ffonts.googleapis.com%2Fcss%3Ffamily%3Dmonospace;fontSize=20;" parent="PuS1e93DzxdC0OhlP6du-2" vertex="1">
          <mxGeometry y="270" width="154" height="30" as="geometry" />
        </mxCell>
        <mxCell id="OnMkHw86zRBNzj9uOMJL-2" style="shape=partialRectangle;connectable=0;fillColor=none;top=0;left=0;bottom=0;right=0;editable=1;overflow=hidden;fontFamily=monospace;fontSource=https%3A%2F%2Ffonts.googleapis.com%2Fcss%3Ffamily%3Dmonospace;fontSize=20;" parent="OnMkHw86zRBNzj9uOMJL-1" vertex="1">
          <mxGeometry width="30" height="30" as="geometry">
            <mxRectangle width="30" height="30" as="alternateBounds" />
          </mxGeometry>
        </mxCell>
        <mxCell id="OnMkHw86zRBNzj9uOMJL-3" value="Is Verified" style="shape=partialRectangle;connectable=0;fillColor=none;top=0;left=0;bottom=0;right=0;align=left;spacingLeft=6;overflow=hidden;fontFamily=monospace;fontSource=https%3A%2F%2Ffonts.googleapis.com%2Fcss%3Ffamily%3Dmonospace;fontSize=12;" parent="OnMkHw86zRBNzj9uOMJL-1" vertex="1">
          <mxGeometry x="30" width="124" height="30" as="geometry">
            <mxRectangle width="124" height="30" as="alternateBounds" />
          </mxGeometry>
        </mxCell>
        <mxCell id="4KUUrjR7wUPR5Dd_-c16-1" style="shape=partialRectangle;collapsible=0;dropTarget=0;pointerEvents=0;fillColor=none;top=0;left=0;bottom=0;right=0;points=[[0,0.5],[1,0.5]];portConstraint=eastwest;fontFamily=monospace;fontSource=https%3A%2F%2Ffonts.googleapis.com%2Fcss%3Ffamily%3Dmonospace;fontSize=20;" parent="PuS1e93DzxdC0OhlP6du-2" vertex="1">
          <mxGeometry y="300" width="154" height="30" as="geometry" />
        </mxCell>
        <mxCell id="4KUUrjR7wUPR5Dd_-c16-2" style="shape=partialRectangle;connectable=0;fillColor=none;top=0;left=0;bottom=0;right=0;editable=1;overflow=hidden;fontFamily=monospace;fontSource=https%3A%2F%2Ffonts.googleapis.com%2Fcss%3Ffamily%3Dmonospace;fontSize=20;" parent="4KUUrjR7wUPR5Dd_-c16-1" vertex="1">
          <mxGeometry width="30" height="30" as="geometry">
            <mxRectangle width="30" height="30" as="alternateBounds" />
          </mxGeometry>
        </mxCell>
        <mxCell id="4KUUrjR7wUPR5Dd_-c16-3" value="Last Logged In" style="shape=partialRectangle;connectable=0;fillColor=none;top=0;left=0;bottom=0;right=0;align=left;spacingLeft=6;overflow=hidden;fontFamily=monospace;fontSource=https%3A%2F%2Ffonts.googleapis.com%2Fcss%3Ffamily%3Dmonospace;fontSize=12;" parent="4KUUrjR7wUPR5Dd_-c16-1" vertex="1">
          <mxGeometry x="30" width="124" height="30" as="geometry">
            <mxRectangle width="124" height="30" as="alternateBounds" />
          </mxGeometry>
        </mxCell>
        <mxCell id="PuS1e93DzxdC0OhlP6du-18" style="shape=partialRectangle;collapsible=0;dropTarget=0;pointerEvents=0;fillColor=none;top=0;left=0;bottom=0;right=0;points=[[0,0.5],[1,0.5]];portConstraint=eastwest;fontFamily=monospace;fontSource=https%3A%2F%2Ffonts.googleapis.com%2Fcss%3Ffamily%3Dmonospace;fontSize=20;" parent="PuS1e93DzxdC0OhlP6du-2" vertex="1">
          <mxGeometry y="330" width="154" height="30" as="geometry" />
        </mxCell>
        <mxCell id="PuS1e93DzxdC0OhlP6du-19" style="shape=partialRectangle;connectable=0;fillColor=none;top=0;left=0;bottom=0;right=0;editable=1;overflow=hidden;fontFamily=monospace;fontSource=https%3A%2F%2Ffonts.googleapis.com%2Fcss%3Ffamily%3Dmonospace;fontSize=20;" parent="PuS1e93DzxdC0OhlP6du-18" vertex="1">
          <mxGeometry width="30" height="30" as="geometry">
            <mxRectangle width="30" height="30" as="alternateBounds" />
          </mxGeometry>
        </mxCell>
        <mxCell id="PuS1e93DzxdC0OhlP6du-20" value="Registered At" style="shape=partialRectangle;connectable=0;fillColor=none;top=0;left=0;bottom=0;right=0;align=left;spacingLeft=6;overflow=hidden;fontFamily=monospace;fontSource=https%3A%2F%2Ffonts.googleapis.com%2Fcss%3Ffamily%3Dmonospace;fontSize=12;" parent="PuS1e93DzxdC0OhlP6du-18" vertex="1">
          <mxGeometry x="30" width="124" height="30" as="geometry">
            <mxRectangle width="124" height="30" as="alternateBounds" />
          </mxGeometry>
        </mxCell>
        <mxCell id="PuS1e93DzxdC0OhlP6du-42" value="" style="edgeStyle=entityRelationEdgeStyle;fontSize=12;html=1;endArrow=ERzeroToMany;endFill=1;rounded=0;fontFamily=monospace;fontSource=https%3A%2F%2Ffonts.googleapis.com%2Fcss%3Ffamily%3Dmonospace;exitX=0;exitY=0.5;exitDx=0;exitDy=0;entryX=1;entryY=0.5;entryDx=0;entryDy=0;" parent="1" source="PuS1e93DzxdC0OhlP6du-3" target="PuS1e93DzxdC0OhlP6du-22" edge="1">
          <mxGeometry width="100" height="100" relative="1" as="geometry">
            <mxPoint x="570" y="280" as="sourcePoint" />
            <mxPoint x="670" y="180" as="targetPoint" />
          </mxGeometry>
        </mxCell>
        <mxCell id="PuS1e93DzxdC0OhlP6du-21" value="Articles" style="shape=table;startSize=30;container=1;collapsible=1;childLayout=tableLayout;fixedRows=1;rowLines=0;fontStyle=1;align=center;resizeLast=1;fontFamily=monospace;fontSource=https%3A%2F%2Ffonts.googleapis.com%2Fcss%3Ffamily%3Dmonospace;fontSize=12;fillColor=#DAE8FC;strokeColor=#6C8EBF;shadow=0;sketch=0;swimlaneFillColor=default;" parent="1" vertex="1">
          <mxGeometry x="358.5" y="80" width="160" height="270" as="geometry" />
        </mxCell>
        <mxCell id="PuS1e93DzxdC0OhlP6du-22" value="" style="shape=partialRectangle;collapsible=0;dropTarget=0;pointerEvents=0;fillColor=none;top=0;left=0;bottom=0;right=0;points=[[0,0.5],[1,0.5]];portConstraint=eastwest;fontFamily=monospace;fontSource=https%3A%2F%2Ffonts.googleapis.com%2Fcss%3Ffamily%3Dmonospace;fontSize=12;" parent="PuS1e93DzxdC0OhlP6du-21" vertex="1">
          <mxGeometry y="30" width="160" height="30" as="geometry" />
        </mxCell>
        <mxCell id="PuS1e93DzxdC0OhlP6du-23" value="PK" style="shape=partialRectangle;connectable=0;fillColor=none;top=0;left=0;bottom=0;right=0;fontStyle=1;overflow=hidden;fontFamily=monospace;fontSource=https%3A%2F%2Ffonts.googleapis.com%2Fcss%3Ffamily%3Dmonospace;fontSize=12;" parent="PuS1e93DzxdC0OhlP6du-22" vertex="1">
          <mxGeometry width="60" height="30" as="geometry">
            <mxRectangle width="60" height="30" as="alternateBounds" />
          </mxGeometry>
        </mxCell>
        <mxCell id="PuS1e93DzxdC0OhlP6du-24" value="articleid" style="shape=partialRectangle;connectable=0;fillColor=none;top=0;left=0;bottom=0;right=0;align=left;spacingLeft=6;fontStyle=5;overflow=hidden;fontFamily=monospace;fontSource=https%3A%2F%2Ffonts.googleapis.com%2Fcss%3Ffamily%3Dmonospace;fontSize=12;" parent="PuS1e93DzxdC0OhlP6du-22" vertex="1">
          <mxGeometry x="60" width="100" height="30" as="geometry">
            <mxRectangle width="100" height="30" as="alternateBounds" />
          </mxGeometry>
        </mxCell>
        <mxCell id="PuS1e93DzxdC0OhlP6du-25" value="" style="shape=partialRectangle;collapsible=0;dropTarget=0;pointerEvents=0;fillColor=none;top=0;left=0;bottom=1;right=0;points=[[0,0.5],[1,0.5]];portConstraint=eastwest;fontFamily=monospace;fontSource=https%3A%2F%2Ffonts.googleapis.com%2Fcss%3Ffamily%3Dmonospace;fontSize=12;" parent="PuS1e93DzxdC0OhlP6du-21" vertex="1">
          <mxGeometry y="60" width="160" height="30" as="geometry" />
        </mxCell>
        <mxCell id="PuS1e93DzxdC0OhlP6du-26" value="FK" style="shape=partialRectangle;connectable=0;fillColor=none;top=0;left=0;bottom=0;right=0;fontStyle=1;overflow=hidden;fontFamily=monospace;fontSource=https%3A%2F%2Ffonts.googleapis.com%2Fcss%3Ffamily%3Dmonospace;fontSize=12;" parent="PuS1e93DzxdC0OhlP6du-25" vertex="1">
          <mxGeometry width="60" height="30" as="geometry">
            <mxRectangle width="60" height="30" as="alternateBounds" />
          </mxGeometry>
        </mxCell>
        <mxCell id="PuS1e93DzxdC0OhlP6du-27" value="userid" style="shape=partialRectangle;connectable=0;fillColor=none;top=0;left=0;bottom=0;right=0;align=left;spacingLeft=6;fontStyle=5;overflow=hidden;fontFamily=monospace;fontSource=https%3A%2F%2Ffonts.googleapis.com%2Fcss%3Ffamily%3Dmonospace;fontSize=12;" parent="PuS1e93DzxdC0OhlP6du-25" vertex="1">
          <mxGeometry x="60" width="100" height="30" as="geometry">
            <mxRectangle width="100" height="30" as="alternateBounds" />
          </mxGeometry>
        </mxCell>
        <mxCell id="PuS1e93DzxdC0OhlP6du-28" value="" style="shape=partialRectangle;collapsible=0;dropTarget=0;pointerEvents=0;fillColor=none;top=0;left=0;bottom=0;right=0;points=[[0,0.5],[1,0.5]];portConstraint=eastwest;fontFamily=monospace;fontSource=https%3A%2F%2Ffonts.googleapis.com%2Fcss%3Ffamily%3Dmonospace;fontSize=12;" parent="PuS1e93DzxdC0OhlP6du-21" vertex="1">
          <mxGeometry y="90" width="160" height="30" as="geometry" />
        </mxCell>
        <mxCell id="PuS1e93DzxdC0OhlP6du-29" value="" style="shape=partialRectangle;connectable=0;fillColor=none;top=0;left=0;bottom=0;right=0;editable=1;overflow=hidden;fontFamily=monospace;fontSource=https%3A%2F%2Ffonts.googleapis.com%2Fcss%3Ffamily%3Dmonospace;fontSize=12;" parent="PuS1e93DzxdC0OhlP6du-28" vertex="1">
          <mxGeometry width="60" height="30" as="geometry">
            <mxRectangle width="60" height="30" as="alternateBounds" />
          </mxGeometry>
        </mxCell>
        <mxCell id="PuS1e93DzxdC0OhlP6du-30" value="Title" style="shape=partialRectangle;connectable=0;fillColor=none;top=0;left=0;bottom=0;right=0;align=left;spacingLeft=6;overflow=hidden;fontFamily=monospace;fontSource=https%3A%2F%2Ffonts.googleapis.com%2Fcss%3Ffamily%3Dmonospace;fontSize=12;" parent="PuS1e93DzxdC0OhlP6du-28" vertex="1">
          <mxGeometry x="60" width="100" height="30" as="geometry">
            <mxRectangle width="100" height="30" as="alternateBounds" />
          </mxGeometry>
        </mxCell>
        <mxCell id="PuS1e93DzxdC0OhlP6du-31" value="" style="shape=partialRectangle;collapsible=0;dropTarget=0;pointerEvents=0;fillColor=none;top=0;left=0;bottom=0;right=0;points=[[0,0.5],[1,0.5]];portConstraint=eastwest;fontFamily=monospace;fontSource=https%3A%2F%2Ffonts.googleapis.com%2Fcss%3Ffamily%3Dmonospace;fontSize=12;" parent="PuS1e93DzxdC0OhlP6du-21" vertex="1">
          <mxGeometry y="120" width="160" height="30" as="geometry" />
        </mxCell>
        <mxCell id="PuS1e93DzxdC0OhlP6du-32" value="" style="shape=partialRectangle;connectable=0;fillColor=none;top=0;left=0;bottom=0;right=0;editable=1;overflow=hidden;fontFamily=monospace;fontSource=https%3A%2F%2Ffonts.googleapis.com%2Fcss%3Ffamily%3Dmonospace;fontSize=12;" parent="PuS1e93DzxdC0OhlP6du-31" vertex="1">
          <mxGeometry width="60" height="30" as="geometry">
            <mxRectangle width="60" height="30" as="alternateBounds" />
          </mxGeometry>
        </mxCell>
        <mxCell id="PuS1e93DzxdC0OhlP6du-33" value="Body" style="shape=partialRectangle;connectable=0;fillColor=none;top=0;left=0;bottom=0;right=0;align=left;spacingLeft=6;overflow=hidden;fontFamily=monospace;fontSource=https%3A%2F%2Ffonts.googleapis.com%2Fcss%3Ffamily%3Dmonospace;fontSize=12;" parent="PuS1e93DzxdC0OhlP6du-31" vertex="1">
          <mxGeometry x="60" width="100" height="30" as="geometry">
            <mxRectangle width="100" height="30" as="alternateBounds" />
          </mxGeometry>
        </mxCell>
        <mxCell id="4KUUrjR7wUPR5Dd_-c16-10" style="shape=partialRectangle;collapsible=0;dropTarget=0;pointerEvents=0;fillColor=none;top=0;left=0;bottom=0;right=0;points=[[0,0.5],[1,0.5]];portConstraint=eastwest;fontFamily=monospace;fontSource=https%3A%2F%2Ffonts.googleapis.com%2Fcss%3Ffamily%3Dmonospace;fontSize=12;" parent="PuS1e93DzxdC0OhlP6du-21" vertex="1">
          <mxGeometry y="150" width="160" height="30" as="geometry" />
        </mxCell>
        <mxCell id="4KUUrjR7wUPR5Dd_-c16-11" style="shape=partialRectangle;connectable=0;fillColor=none;top=0;left=0;bottom=0;right=0;editable=1;overflow=hidden;fontFamily=monospace;fontSource=https%3A%2F%2Ffonts.googleapis.com%2Fcss%3Ffamily%3Dmonospace;fontSize=12;" parent="4KUUrjR7wUPR5Dd_-c16-10" vertex="1">
          <mxGeometry width="60" height="30" as="geometry">
            <mxRectangle width="60" height="30" as="alternateBounds" />
          </mxGeometry>
        </mxCell>
        <mxCell id="4KUUrjR7wUPR5Dd_-c16-12" value="Is Published" style="shape=partialRectangle;connectable=0;fillColor=none;top=0;left=0;bottom=0;right=0;align=left;spacingLeft=6;overflow=hidden;fontFamily=monospace;fontSource=https%3A%2F%2Ffonts.googleapis.com%2Fcss%3Ffamily%3Dmonospace;fontSize=12;" parent="4KUUrjR7wUPR5Dd_-c16-10" vertex="1">
          <mxGeometry x="60" width="100" height="30" as="geometry">
            <mxRectangle width="100" height="30" as="alternateBounds" />
          </mxGeometry>
        </mxCell>
        <mxCell id="PuS1e93DzxdC0OhlP6du-34" style="shape=partialRectangle;collapsible=0;dropTarget=0;pointerEvents=0;fillColor=none;top=0;left=0;bottom=0;right=0;points=[[0,0.5],[1,0.5]];portConstraint=eastwest;fontFamily=monospace;fontSource=https%3A%2F%2Ffonts.googleapis.com%2Fcss%3Ffamily%3Dmonospace;fontSize=12;" parent="PuS1e93DzxdC0OhlP6du-21" vertex="1">
          <mxGeometry y="180" width="160" height="30" as="geometry" />
        </mxCell>
        <mxCell id="PuS1e93DzxdC0OhlP6du-35" style="shape=partialRectangle;connectable=0;fillColor=none;top=0;left=0;bottom=0;right=0;editable=1;overflow=hidden;fontFamily=monospace;fontSource=https%3A%2F%2Ffonts.googleapis.com%2Fcss%3Ffamily%3Dmonospace;fontSize=12;" parent="PuS1e93DzxdC0OhlP6du-34" vertex="1">
          <mxGeometry width="60" height="30" as="geometry">
            <mxRectangle width="60" height="30" as="alternateBounds" />
          </mxGeometry>
        </mxCell>
        <mxCell id="PuS1e93DzxdC0OhlP6du-36" value="Created At" style="shape=partialRectangle;connectable=0;fillColor=none;top=0;left=0;bottom=0;right=0;align=left;spacingLeft=6;overflow=hidden;fontFamily=monospace;fontSource=https%3A%2F%2Ffonts.googleapis.com%2Fcss%3Ffamily%3Dmonospace;fontSize=12;" parent="PuS1e93DzxdC0OhlP6du-34" vertex="1">
          <mxGeometry x="60" width="100" height="30" as="geometry">
            <mxRectangle width="100" height="30" as="alternateBounds" />
          </mxGeometry>
        </mxCell>
        <mxCell id="PuS1e93DzxdC0OhlP6du-37" style="shape=partialRectangle;collapsible=0;dropTarget=0;pointerEvents=0;fillColor=none;top=0;left=0;bottom=0;right=0;points=[[0,0.5],[1,0.5]];portConstraint=eastwest;fontFamily=monospace;fontSource=https%3A%2F%2Ffonts.googleapis.com%2Fcss%3Ffamily%3Dmonospace;fontSize=12;" parent="PuS1e93DzxdC0OhlP6du-21" vertex="1">
          <mxGeometry y="210" width="160" height="30" as="geometry" />
        </mxCell>
        <mxCell id="PuS1e93DzxdC0OhlP6du-38" style="shape=partialRectangle;connectable=0;fillColor=none;top=0;left=0;bottom=0;right=0;editable=1;overflow=hidden;fontFamily=monospace;fontSource=https%3A%2F%2Ffonts.googleapis.com%2Fcss%3Ffamily%3Dmonospace;fontSize=12;" parent="PuS1e93DzxdC0OhlP6du-37" vertex="1">
          <mxGeometry width="60" height="30" as="geometry">
            <mxRectangle width="60" height="30" as="alternateBounds" />
          </mxGeometry>
        </mxCell>
        <mxCell id="PuS1e93DzxdC0OhlP6du-39" value="Last Modified" style="shape=partialRectangle;connectable=0;fillColor=none;top=0;left=0;bottom=0;right=0;align=left;spacingLeft=6;overflow=hidden;fontFamily=monospace;fontSource=https%3A%2F%2Ffonts.googleapis.com%2Fcss%3Ffamily%3Dmonospace;fontSize=12;" parent="PuS1e93DzxdC0OhlP6du-37" vertex="1">
          <mxGeometry x="60" width="100" height="30" as="geometry">
            <mxRectangle width="100" height="30" as="alternateBounds" />
          </mxGeometry>
        </mxCell>
        <mxCell id="4KUUrjR7wUPR5Dd_-c16-13" style="shape=partialRectangle;collapsible=0;dropTarget=0;pointerEvents=0;fillColor=none;top=0;left=0;bottom=0;right=0;points=[[0,0.5],[1,0.5]];portConstraint=eastwest;fontFamily=monospace;fontSource=https%3A%2F%2Ffonts.googleapis.com%2Fcss%3Ffamily%3Dmonospace;fontSize=12;" parent="PuS1e93DzxdC0OhlP6du-21" vertex="1">
          <mxGeometry y="240" width="160" height="30" as="geometry" />
        </mxCell>
        <mxCell id="4KUUrjR7wUPR5Dd_-c16-14" style="shape=partialRectangle;connectable=0;fillColor=none;top=0;left=0;bottom=0;right=0;editable=1;overflow=hidden;fontFamily=monospace;fontSource=https%3A%2F%2Ffonts.googleapis.com%2Fcss%3Ffamily%3Dmonospace;fontSize=12;" parent="4KUUrjR7wUPR5Dd_-c16-13" vertex="1">
          <mxGeometry width="60" height="30" as="geometry">
            <mxRectangle width="60" height="30" as="alternateBounds" />
          </mxGeometry>
        </mxCell>
        <mxCell id="4KUUrjR7wUPR5Dd_-c16-15" value="Published At" style="shape=partialRectangle;connectable=0;fillColor=none;top=0;left=0;bottom=0;right=0;align=left;spacingLeft=6;overflow=hidden;fontFamily=monospace;fontSource=https%3A%2F%2Ffonts.googleapis.com%2Fcss%3Ffamily%3Dmonospace;fontSize=12;" parent="4KUUrjR7wUPR5Dd_-c16-13" vertex="1">
          <mxGeometry x="60" width="100" height="30" as="geometry">
            <mxRectangle width="100" height="30" as="alternateBounds" />
          </mxGeometry>
        </mxCell>
        <mxCell id="4KUUrjR7wUPR5Dd_-c16-16" value="Comments" style="shape=table;startSize=30;container=1;collapsible=1;childLayout=tableLayout;fixedRows=1;rowLines=0;fontStyle=1;align=center;resizeLast=1;swimlaneFillColor=default;fillColor=#f8cecc;gradientColor=#ea6b66;strokeColor=#b85450;" parent="1" vertex="1">
          <mxGeometry x="25" y="410" width="150" height="180" as="geometry" />
        </mxCell>
        <mxCell id="4KUUrjR7wUPR5Dd_-c16-17" value="" style="shape=partialRectangle;collapsible=0;dropTarget=0;pointerEvents=0;fillColor=#f8cecc;top=0;left=0;bottom=0;right=0;points=[[0,0.5],[1,0.5]];portConstraint=eastwest;gradientColor=#ea6b66;strokeColor=#b85450;" parent="4KUUrjR7wUPR5Dd_-c16-16" vertex="1">
          <mxGeometry y="30" width="150" height="30" as="geometry" />
        </mxCell>
        <mxCell id="4KUUrjR7wUPR5Dd_-c16-18" value="PK    " style="shape=partialRectangle;connectable=0;fillColor=#f8cecc;top=0;left=0;bottom=0;right=0;fontStyle=1;overflow=hidden;gradientColor=#ea6b66;strokeColor=#b85450;" parent="4KUUrjR7wUPR5Dd_-c16-17" vertex="1">
          <mxGeometry width="60" height="30" as="geometry">
            <mxRectangle width="60" height="30" as="alternateBounds" />
          </mxGeometry>
        </mxCell>
        <mxCell id="4KUUrjR7wUPR5Dd_-c16-19" value="commentid" style="shape=partialRectangle;connectable=0;fillColor=#f8cecc;top=0;left=0;bottom=0;right=0;align=left;spacingLeft=6;fontStyle=5;overflow=hidden;gradientColor=#ea6b66;strokeColor=#b85450;" parent="4KUUrjR7wUPR5Dd_-c16-17" vertex="1">
          <mxGeometry x="60" width="90" height="30" as="geometry">
            <mxRectangle width="90" height="30" as="alternateBounds" />
          </mxGeometry>
        </mxCell>
        <mxCell id="4KUUrjR7wUPR5Dd_-c16-32" style="shape=partialRectangle;collapsible=0;dropTarget=0;pointerEvents=0;fillColor=#f8cecc;top=0;left=0;bottom=0;right=0;points=[[0,0.5],[1,0.5]];portConstraint=eastwest;gradientColor=#ea6b66;strokeColor=#b85450;" parent="4KUUrjR7wUPR5Dd_-c16-16" vertex="1">
          <mxGeometry y="60" width="150" height="30" as="geometry" />
        </mxCell>
        <mxCell id="4KUUrjR7wUPR5Dd_-c16-33" value="FK" style="shape=partialRectangle;connectable=0;fillColor=#f8cecc;top=0;left=0;bottom=0;right=0;fontStyle=1;overflow=hidden;gradientColor=#ea6b66;strokeColor=#b85450;" parent="4KUUrjR7wUPR5Dd_-c16-32" vertex="1">
          <mxGeometry width="60" height="30" as="geometry">
            <mxRectangle width="60" height="30" as="alternateBounds" />
          </mxGeometry>
        </mxCell>
        <mxCell id="4KUUrjR7wUPR5Dd_-c16-34" value="userid" style="shape=partialRectangle;connectable=0;fillColor=#f8cecc;top=0;left=0;bottom=0;right=0;align=left;spacingLeft=6;fontStyle=5;overflow=hidden;gradientColor=#ea6b66;strokeColor=#b85450;" parent="4KUUrjR7wUPR5Dd_-c16-32" vertex="1">
          <mxGeometry x="60" width="90" height="30" as="geometry">
            <mxRectangle width="90" height="30" as="alternateBounds" />
          </mxGeometry>
        </mxCell>
        <mxCell id="4KUUrjR7wUPR5Dd_-c16-20" value="" style="shape=partialRectangle;collapsible=0;dropTarget=0;pointerEvents=0;fillColor=#f8cecc;top=0;left=0;bottom=1;right=0;points=[[0,0.5],[1,0.5]];portConstraint=eastwest;gradientColor=#ea6b66;strokeColor=#b85450;" parent="4KUUrjR7wUPR5Dd_-c16-16" vertex="1">
          <mxGeometry y="90" width="150" height="30" as="geometry" />
        </mxCell>
        <mxCell id="4KUUrjR7wUPR5Dd_-c16-21" value="FK" style="shape=partialRectangle;connectable=0;fillColor=#f8cecc;top=0;left=0;bottom=0;right=0;fontStyle=1;overflow=hidden;gradientColor=#ea6b66;strokeColor=#b85450;" parent="4KUUrjR7wUPR5Dd_-c16-20" vertex="1">
          <mxGeometry width="60" height="30" as="geometry">
            <mxRectangle width="60" height="30" as="alternateBounds" />
          </mxGeometry>
        </mxCell>
        <mxCell id="4KUUrjR7wUPR5Dd_-c16-22" value="articleid" style="shape=partialRectangle;connectable=0;fillColor=#f8cecc;top=0;left=0;bottom=0;right=0;align=left;spacingLeft=6;fontStyle=5;overflow=hidden;gradientColor=#ea6b66;strokeColor=#b85450;" parent="4KUUrjR7wUPR5Dd_-c16-20" vertex="1">
          <mxGeometry x="60" width="90" height="30" as="geometry">
            <mxRectangle width="90" height="30" as="alternateBounds" />
          </mxGeometry>
        </mxCell>
        <mxCell id="4KUUrjR7wUPR5Dd_-c16-23" value="" style="shape=partialRectangle;collapsible=0;dropTarget=0;pointerEvents=0;fillColor=#f8cecc;top=0;left=0;bottom=0;right=0;points=[[0,0.5],[1,0.5]];portConstraint=eastwest;gradientColor=#ea6b66;strokeColor=#b85450;" parent="4KUUrjR7wUPR5Dd_-c16-16" vertex="1">
          <mxGeometry y="120" width="150" height="30" as="geometry" />
        </mxCell>
        <mxCell id="4KUUrjR7wUPR5Dd_-c16-24" value="" style="shape=partialRectangle;connectable=0;fillColor=#f8cecc;top=0;left=0;bottom=0;right=0;editable=1;overflow=hidden;gradientColor=#ea6b66;strokeColor=#b85450;" parent="4KUUrjR7wUPR5Dd_-c16-23" vertex="1">
          <mxGeometry width="60" height="30" as="geometry">
            <mxRectangle width="60" height="30" as="alternateBounds" />
          </mxGeometry>
        </mxCell>
        <mxCell id="4KUUrjR7wUPR5Dd_-c16-25" value="comment content" style="shape=partialRectangle;connectable=0;fillColor=#f8cecc;top=0;left=0;bottom=0;right=0;align=left;spacingLeft=6;overflow=hidden;gradientColor=#ea6b66;strokeColor=#b85450;" parent="4KUUrjR7wUPR5Dd_-c16-23" vertex="1">
          <mxGeometry x="60" width="90" height="30" as="geometry">
            <mxRectangle width="90" height="30" as="alternateBounds" />
          </mxGeometry>
        </mxCell>
        <mxCell id="4KUUrjR7wUPR5Dd_-c16-26" value="" style="shape=partialRectangle;collapsible=0;dropTarget=0;pointerEvents=0;fillColor=#f8cecc;top=0;left=0;bottom=0;right=0;points=[[0,0.5],[1,0.5]];portConstraint=eastwest;gradientColor=#ea6b66;strokeColor=#b85450;" parent="4KUUrjR7wUPR5Dd_-c16-16" vertex="1">
          <mxGeometry y="150" width="150" height="30" as="geometry" />
        </mxCell>
        <mxCell id="4KUUrjR7wUPR5Dd_-c16-27" value="" style="shape=partialRectangle;connectable=0;fillColor=#f8cecc;top=0;left=0;bottom=0;right=0;editable=1;overflow=hidden;gradientColor=#ea6b66;strokeColor=#b85450;" parent="4KUUrjR7wUPR5Dd_-c16-26" vertex="1">
          <mxGeometry width="60" height="30" as="geometry">
            <mxRectangle width="60" height="30" as="alternateBounds" />
          </mxGeometry>
        </mxCell>
        <mxCell id="4KUUrjR7wUPR5Dd_-c16-28" value="commented At" style="shape=partialRectangle;connectable=0;fillColor=#f8cecc;top=0;left=0;bottom=0;right=0;align=left;spacingLeft=6;overflow=hidden;gradientColor=#ea6b66;strokeColor=#b85450;" parent="4KUUrjR7wUPR5Dd_-c16-26" vertex="1">
          <mxGeometry x="60" width="90" height="30" as="geometry">
            <mxRectangle width="90" height="30" as="alternateBounds" />
          </mxGeometry>
        </mxCell>
        <mxCell id="4KUUrjR7wUPR5Dd_-c16-35" value="Article Likes" style="shape=table;startSize=30;container=1;collapsible=1;childLayout=tableLayout;fixedRows=1;rowLines=0;fontStyle=1;align=center;resizeLast=1;swimlaneFillColor=default;fillColor=#f8cecc;gradientColor=#ea6b66;strokeColor=#b85450;" parent="1" vertex="1">
          <mxGeometry x="10" y="630" width="180" height="130" as="geometry" />
        </mxCell>
        <mxCell id="4KUUrjR7wUPR5Dd_-c16-36" value="" style="shape=partialRectangle;collapsible=0;dropTarget=0;pointerEvents=0;fillColor=#f8cecc;top=0;left=0;bottom=0;right=0;points=[[0,0.5],[1,0.5]];portConstraint=eastwest;gradientColor=#ea6b66;strokeColor=#b85450;" parent="4KUUrjR7wUPR5Dd_-c16-35" vertex="1">
          <mxGeometry y="30" width="180" height="30" as="geometry" />
        </mxCell>
        <mxCell id="4KUUrjR7wUPR5Dd_-c16-37" value="PK" style="shape=partialRectangle;connectable=0;fillColor=#f8cecc;top=0;left=0;bottom=0;right=0;fontStyle=1;overflow=hidden;gradientColor=#ea6b66;strokeColor=#b85450;" parent="4KUUrjR7wUPR5Dd_-c16-36" vertex="1">
          <mxGeometry width="60" height="30" as="geometry">
            <mxRectangle width="60" height="30" as="alternateBounds" />
          </mxGeometry>
        </mxCell>
        <mxCell id="4KUUrjR7wUPR5Dd_-c16-38" value="(Auto Increment) &#xa;(Not Null)" style="shape=partialRectangle;connectable=0;fillColor=#f8cecc;top=0;left=0;bottom=0;right=0;align=left;spacingLeft=6;fontStyle=5;overflow=hidden;gradientColor=#ea6b66;strokeColor=#b85450;" parent="4KUUrjR7wUPR5Dd_-c16-36" vertex="1">
          <mxGeometry x="60" width="120" height="30" as="geometry">
            <mxRectangle width="120" height="30" as="alternateBounds" />
          </mxGeometry>
        </mxCell>
        <mxCell id="4KUUrjR7wUPR5Dd_-c16-48" style="shape=partialRectangle;collapsible=0;dropTarget=0;pointerEvents=0;fillColor=#f8cecc;top=0;left=0;bottom=0;right=0;points=[[0,0.5],[1,0.5]];portConstraint=eastwest;gradientColor=#ea6b66;strokeColor=#b85450;" parent="4KUUrjR7wUPR5Dd_-c16-35" vertex="1">
          <mxGeometry y="60" width="180" height="30" as="geometry" />
        </mxCell>
        <mxCell id="4KUUrjR7wUPR5Dd_-c16-49" value="FK" style="shape=partialRectangle;connectable=0;fillColor=#f8cecc;top=0;left=0;bottom=0;right=0;fontStyle=1;overflow=hidden;gradientColor=#ea6b66;strokeColor=#b85450;" parent="4KUUrjR7wUPR5Dd_-c16-48" vertex="1">
          <mxGeometry width="60" height="30" as="geometry">
            <mxRectangle width="60" height="30" as="alternateBounds" />
          </mxGeometry>
        </mxCell>
        <mxCell id="4KUUrjR7wUPR5Dd_-c16-50" value="articleid" style="shape=partialRectangle;connectable=0;fillColor=#f8cecc;top=0;left=0;bottom=0;right=0;align=left;spacingLeft=6;fontStyle=5;overflow=hidden;gradientColor=#ea6b66;strokeColor=#b85450;" parent="4KUUrjR7wUPR5Dd_-c16-48" vertex="1">
          <mxGeometry x="60" width="120" height="30" as="geometry">
            <mxRectangle width="120" height="30" as="alternateBounds" />
          </mxGeometry>
        </mxCell>
        <mxCell id="4KUUrjR7wUPR5Dd_-c16-39" value="" style="shape=partialRectangle;collapsible=0;dropTarget=0;pointerEvents=0;fillColor=#f8cecc;top=0;left=0;bottom=1;right=0;points=[[0,0.5],[1,0.5]];portConstraint=eastwest;gradientColor=#ea6b66;strokeColor=#b85450;" parent="4KUUrjR7wUPR5Dd_-c16-35" vertex="1">
          <mxGeometry y="90" width="180" height="30" as="geometry" />
        </mxCell>
        <mxCell id="4KUUrjR7wUPR5Dd_-c16-40" value="FK" style="shape=partialRectangle;connectable=0;fillColor=#f8cecc;top=0;left=0;bottom=0;right=0;fontStyle=1;overflow=hidden;gradientColor=#ea6b66;strokeColor=#b85450;" parent="4KUUrjR7wUPR5Dd_-c16-39" vertex="1">
          <mxGeometry width="60" height="30" as="geometry">
            <mxRectangle width="60" height="30" as="alternateBounds" />
          </mxGeometry>
        </mxCell>
        <mxCell id="4KUUrjR7wUPR5Dd_-c16-41" value="userid" style="shape=partialRectangle;connectable=0;fillColor=#f8cecc;top=0;left=0;bottom=0;right=0;align=left;spacingLeft=6;fontStyle=5;overflow=hidden;gradientColor=#ea6b66;strokeColor=#b85450;" parent="4KUUrjR7wUPR5Dd_-c16-39" vertex="1">
          <mxGeometry x="60" width="120" height="30" as="geometry">
            <mxRectangle width="120" height="30" as="alternateBounds" />
          </mxGeometry>
        </mxCell>
        <mxCell id="4KUUrjR7wUPR5Dd_-c16-51" value="Save/Bookmark" style="shape=table;startSize=30;container=1;collapsible=1;childLayout=tableLayout;fixedRows=1;rowLines=0;fontStyle=1;align=center;resizeLast=1;swimlaneFillColor=default;fillColor=#f8cecc;gradientColor=#ea6b66;strokeColor=#b85450;" parent="1" vertex="1">
          <mxGeometry x="353.5" y="410" width="170" height="130" as="geometry" />
        </mxCell>
        <mxCell id="4KUUrjR7wUPR5Dd_-c16-52" value="" style="shape=partialRectangle;collapsible=0;dropTarget=0;pointerEvents=0;fillColor=#f8cecc;top=0;left=0;bottom=0;right=0;points=[[0,0.5],[1,0.5]];portConstraint=eastwest;gradientColor=#ea6b66;strokeColor=#b85450;" parent="4KUUrjR7wUPR5Dd_-c16-51" vertex="1">
          <mxGeometry y="30" width="170" height="30" as="geometry" />
        </mxCell>
        <mxCell id="4KUUrjR7wUPR5Dd_-c16-53" value="PK" style="shape=partialRectangle;connectable=0;fillColor=#f8cecc;top=0;left=0;bottom=0;right=0;fontStyle=1;overflow=hidden;gradientColor=#ea6b66;strokeColor=#b85450;" parent="4KUUrjR7wUPR5Dd_-c16-52" vertex="1">
          <mxGeometry width="60" height="30" as="geometry">
            <mxRectangle width="60" height="30" as="alternateBounds" />
          </mxGeometry>
        </mxCell>
        <mxCell id="4KUUrjR7wUPR5Dd_-c16-54" value="(Auto Increment)&#xa;(Not Null)" style="shape=partialRectangle;connectable=0;fillColor=#f8cecc;top=0;left=0;bottom=0;right=0;align=left;spacingLeft=6;fontStyle=5;overflow=hidden;gradientColor=#ea6b66;strokeColor=#b85450;" parent="4KUUrjR7wUPR5Dd_-c16-52" vertex="1">
          <mxGeometry x="60" width="110" height="30" as="geometry">
            <mxRectangle width="110" height="30" as="alternateBounds" />
          </mxGeometry>
        </mxCell>
        <mxCell id="4KUUrjR7wUPR5Dd_-c16-64" style="shape=partialRectangle;collapsible=0;dropTarget=0;pointerEvents=0;fillColor=#f8cecc;top=0;left=0;bottom=0;right=0;points=[[0,0.5],[1,0.5]];portConstraint=eastwest;gradientColor=#ea6b66;strokeColor=#b85450;" parent="4KUUrjR7wUPR5Dd_-c16-51" vertex="1">
          <mxGeometry y="60" width="170" height="30" as="geometry" />
        </mxCell>
        <mxCell id="4KUUrjR7wUPR5Dd_-c16-65" value="FK" style="shape=partialRectangle;connectable=0;fillColor=#f8cecc;top=0;left=0;bottom=0;right=0;fontStyle=1;overflow=hidden;gradientColor=#ea6b66;strokeColor=#b85450;" parent="4KUUrjR7wUPR5Dd_-c16-64" vertex="1">
          <mxGeometry width="60" height="30" as="geometry">
            <mxRectangle width="60" height="30" as="alternateBounds" />
          </mxGeometry>
        </mxCell>
        <mxCell id="4KUUrjR7wUPR5Dd_-c16-66" value="userid" style="shape=partialRectangle;connectable=0;fillColor=#f8cecc;top=0;left=0;bottom=0;right=0;align=left;spacingLeft=6;fontStyle=5;overflow=hidden;gradientColor=#ea6b66;strokeColor=#b85450;" parent="4KUUrjR7wUPR5Dd_-c16-64" vertex="1">
          <mxGeometry x="60" width="110" height="30" as="geometry">
            <mxRectangle width="110" height="30" as="alternateBounds" />
          </mxGeometry>
        </mxCell>
        <mxCell id="4KUUrjR7wUPR5Dd_-c16-55" value="" style="shape=partialRectangle;collapsible=0;dropTarget=0;pointerEvents=0;fillColor=#f8cecc;top=0;left=0;bottom=1;right=0;points=[[0,0.5],[1,0.5]];portConstraint=eastwest;gradientColor=#ea6b66;strokeColor=#b85450;" parent="4KUUrjR7wUPR5Dd_-c16-51" vertex="1">
          <mxGeometry y="90" width="170" height="30" as="geometry" />
        </mxCell>
        <mxCell id="4KUUrjR7wUPR5Dd_-c16-56" value="FK" style="shape=partialRectangle;connectable=0;fillColor=#f8cecc;top=0;left=0;bottom=0;right=0;fontStyle=1;overflow=hidden;gradientColor=#ea6b66;strokeColor=#b85450;" parent="4KUUrjR7wUPR5Dd_-c16-55" vertex="1">
          <mxGeometry width="60" height="30" as="geometry">
            <mxRectangle width="60" height="30" as="alternateBounds" />
          </mxGeometry>
        </mxCell>
        <mxCell id="4KUUrjR7wUPR5Dd_-c16-57" value="articleid" style="shape=partialRectangle;connectable=0;fillColor=#f8cecc;top=0;left=0;bottom=0;right=0;align=left;spacingLeft=6;fontStyle=5;overflow=hidden;gradientColor=#ea6b66;strokeColor=#b85450;" parent="4KUUrjR7wUPR5Dd_-c16-55" vertex="1">
          <mxGeometry x="60" width="110" height="30" as="geometry">
            <mxRectangle width="110" height="30" as="alternateBounds" />
          </mxGeometry>
        </mxCell>
        <mxCell id="4KUUrjR7wUPR5Dd_-c16-67" value="Category" style="shape=table;startSize=30;container=1;collapsible=1;childLayout=tableLayout;fixedRows=1;rowLines=0;fontStyle=1;align=center;resizeLast=1;swimlaneFillColor=default;fillColor=#f8cecc;gradientColor=#ea6b66;strokeColor=#b85450;" parent="1" vertex="1">
          <mxGeometry x="-250" y="80" width="180" height="130" as="geometry" />
        </mxCell>
        <mxCell id="4KUUrjR7wUPR5Dd_-c16-68" value="" style="shape=partialRectangle;collapsible=0;dropTarget=0;pointerEvents=0;fillColor=#f8cecc;top=0;left=0;bottom=1;right=0;points=[[0,0.5],[1,0.5]];portConstraint=eastwest;gradientColor=#ea6b66;strokeColor=#b85450;" parent="4KUUrjR7wUPR5Dd_-c16-67" vertex="1">
          <mxGeometry y="30" width="180" height="30" as="geometry" />
        </mxCell>
        <mxCell id="4KUUrjR7wUPR5Dd_-c16-69" value="PK" style="shape=partialRectangle;connectable=0;fillColor=#f8cecc;top=0;left=0;bottom=0;right=0;fontStyle=1;overflow=hidden;gradientColor=#ea6b66;strokeColor=#b85450;" parent="4KUUrjR7wUPR5Dd_-c16-68" vertex="1">
          <mxGeometry width="30" height="30" as="geometry">
            <mxRectangle width="30" height="30" as="alternateBounds" />
          </mxGeometry>
        </mxCell>
        <mxCell id="4KUUrjR7wUPR5Dd_-c16-70" value="categoryid" style="shape=partialRectangle;connectable=0;fillColor=#f8cecc;top=0;left=0;bottom=0;right=0;align=left;spacingLeft=6;fontStyle=5;overflow=hidden;gradientColor=#ea6b66;strokeColor=#b85450;" parent="4KUUrjR7wUPR5Dd_-c16-68" vertex="1">
          <mxGeometry x="30" width="150" height="30" as="geometry">
            <mxRectangle width="150" height="30" as="alternateBounds" />
          </mxGeometry>
        </mxCell>
        <mxCell id="4KUUrjR7wUPR5Dd_-c16-71" value="" style="shape=partialRectangle;collapsible=0;dropTarget=0;pointerEvents=0;fillColor=#f8cecc;top=0;left=0;bottom=0;right=0;points=[[0,0.5],[1,0.5]];portConstraint=eastwest;gradientColor=#ea6b66;strokeColor=#b85450;" parent="4KUUrjR7wUPR5Dd_-c16-67" vertex="1">
          <mxGeometry y="60" width="180" height="30" as="geometry" />
        </mxCell>
        <mxCell id="4KUUrjR7wUPR5Dd_-c16-72" value="" style="shape=partialRectangle;connectable=0;fillColor=#f8cecc;top=0;left=0;bottom=0;right=0;editable=1;overflow=hidden;gradientColor=#ea6b66;strokeColor=#b85450;" parent="4KUUrjR7wUPR5Dd_-c16-71" vertex="1">
          <mxGeometry width="30" height="30" as="geometry">
            <mxRectangle width="30" height="30" as="alternateBounds" />
          </mxGeometry>
        </mxCell>
        <mxCell id="4KUUrjR7wUPR5Dd_-c16-73" value="Category Name" style="shape=partialRectangle;connectable=0;fillColor=#f8cecc;top=0;left=0;bottom=0;right=0;align=left;spacingLeft=6;overflow=hidden;gradientColor=#ea6b66;strokeColor=#b85450;" parent="4KUUrjR7wUPR5Dd_-c16-71" vertex="1">
          <mxGeometry x="30" width="150" height="30" as="geometry">
            <mxRectangle width="150" height="30" as="alternateBounds" />
          </mxGeometry>
        </mxCell>
        <mxCell id="4KUUrjR7wUPR5Dd_-c16-74" value="" style="shape=partialRectangle;collapsible=0;dropTarget=0;pointerEvents=0;fillColor=#f8cecc;top=0;left=0;bottom=0;right=0;points=[[0,0.5],[1,0.5]];portConstraint=eastwest;gradientColor=#ea6b66;strokeColor=#b85450;" parent="4KUUrjR7wUPR5Dd_-c16-67" vertex="1">
          <mxGeometry y="90" width="180" height="30" as="geometry" />
        </mxCell>
        <mxCell id="4KUUrjR7wUPR5Dd_-c16-75" value="" style="shape=partialRectangle;connectable=0;fillColor=#f8cecc;top=0;left=0;bottom=0;right=0;editable=1;overflow=hidden;gradientColor=#ea6b66;strokeColor=#b85450;" parent="4KUUrjR7wUPR5Dd_-c16-74" vertex="1">
          <mxGeometry width="30" height="30" as="geometry">
            <mxRectangle width="30" height="30" as="alternateBounds" />
          </mxGeometry>
        </mxCell>
        <mxCell id="4KUUrjR7wUPR5Dd_-c16-76" value="Description" style="shape=partialRectangle;connectable=0;fillColor=#f8cecc;top=0;left=0;bottom=0;right=0;align=left;spacingLeft=6;overflow=hidden;gradientColor=#ea6b66;strokeColor=#b85450;" parent="4KUUrjR7wUPR5Dd_-c16-74" vertex="1">
          <mxGeometry x="30" width="150" height="30" as="geometry">
            <mxRectangle width="150" height="30" as="alternateBounds" />
          </mxGeometry>
        </mxCell>
        <mxCell id="4KUUrjR7wUPR5Dd_-c16-80" value="Article-Category" style="shape=table;startSize=30;container=1;collapsible=1;childLayout=tableLayout;fixedRows=1;rowLines=0;fontStyle=1;align=center;resizeLast=1;swimlaneFillColor=default;fillColor=#f8cecc;gradientColor=#ea6b66;strokeColor=#b85450;" parent="1" vertex="1">
          <mxGeometry x="10" y="80" width="180" height="130" as="geometry" />
        </mxCell>
        <mxCell id="4KUUrjR7wUPR5Dd_-c16-81" value="" style="shape=partialRectangle;collapsible=0;dropTarget=0;pointerEvents=0;fillColor=#f8cecc;top=0;left=0;bottom=0;right=0;points=[[0,0.5],[1,0.5]];portConstraint=eastwest;gradientColor=#ea6b66;strokeColor=#b85450;" parent="4KUUrjR7wUPR5Dd_-c16-80" vertex="1">
          <mxGeometry y="30" width="180" height="30" as="geometry" />
        </mxCell>
        <mxCell id="4KUUrjR7wUPR5Dd_-c16-82" value="PK" style="shape=partialRectangle;connectable=0;fillColor=#f8cecc;top=0;left=0;bottom=0;right=0;fontStyle=1;overflow=hidden;gradientColor=#ea6b66;strokeColor=#b85450;" parent="4KUUrjR7wUPR5Dd_-c16-81" vertex="1">
          <mxGeometry width="60" height="30" as="geometry">
            <mxRectangle width="60" height="30" as="alternateBounds" />
          </mxGeometry>
        </mxCell>
        <mxCell id="4KUUrjR7wUPR5Dd_-c16-83" value="AI NN" style="shape=partialRectangle;connectable=0;fillColor=#f8cecc;top=0;left=0;bottom=0;right=0;align=left;spacingLeft=6;fontStyle=5;overflow=hidden;gradientColor=#ea6b66;strokeColor=#b85450;" parent="4KUUrjR7wUPR5Dd_-c16-81" vertex="1">
          <mxGeometry x="60" width="120" height="30" as="geometry">
            <mxRectangle width="120" height="30" as="alternateBounds" />
          </mxGeometry>
        </mxCell>
        <mxCell id="4KUUrjR7wUPR5Dd_-c16-93" style="shape=partialRectangle;collapsible=0;dropTarget=0;pointerEvents=0;fillColor=#f8cecc;top=0;left=0;bottom=0;right=0;points=[[0,0.5],[1,0.5]];portConstraint=eastwest;gradientColor=#ea6b66;strokeColor=#b85450;" parent="4KUUrjR7wUPR5Dd_-c16-80" vertex="1">
          <mxGeometry y="60" width="180" height="30" as="geometry" />
        </mxCell>
        <mxCell id="4KUUrjR7wUPR5Dd_-c16-94" value="FK" style="shape=partialRectangle;connectable=0;fillColor=#f8cecc;top=0;left=0;bottom=0;right=0;fontStyle=1;overflow=hidden;gradientColor=#ea6b66;strokeColor=#b85450;" parent="4KUUrjR7wUPR5Dd_-c16-93" vertex="1">
          <mxGeometry width="60" height="30" as="geometry">
            <mxRectangle width="60" height="30" as="alternateBounds" />
          </mxGeometry>
        </mxCell>
        <mxCell id="4KUUrjR7wUPR5Dd_-c16-95" value="categoryid" style="shape=partialRectangle;connectable=0;fillColor=#f8cecc;top=0;left=0;bottom=0;right=0;align=left;spacingLeft=6;fontStyle=5;overflow=hidden;gradientColor=#ea6b66;strokeColor=#b85450;" parent="4KUUrjR7wUPR5Dd_-c16-93" vertex="1">
          <mxGeometry x="60" width="120" height="30" as="geometry">
            <mxRectangle width="120" height="30" as="alternateBounds" />
          </mxGeometry>
        </mxCell>
        <mxCell id="4KUUrjR7wUPR5Dd_-c16-84" value="" style="shape=partialRectangle;collapsible=0;dropTarget=0;pointerEvents=0;fillColor=#f8cecc;top=0;left=0;bottom=1;right=0;points=[[0,0.5],[1,0.5]];portConstraint=eastwest;gradientColor=#ea6b66;strokeColor=#b85450;" parent="4KUUrjR7wUPR5Dd_-c16-80" vertex="1">
          <mxGeometry y="90" width="180" height="30" as="geometry" />
        </mxCell>
        <mxCell id="4KUUrjR7wUPR5Dd_-c16-85" value="FK" style="shape=partialRectangle;connectable=0;fillColor=#f8cecc;top=0;left=0;bottom=0;right=0;fontStyle=1;overflow=hidden;gradientColor=#ea6b66;strokeColor=#b85450;" parent="4KUUrjR7wUPR5Dd_-c16-84" vertex="1">
          <mxGeometry width="60" height="30" as="geometry">
            <mxRectangle width="60" height="30" as="alternateBounds" />
          </mxGeometry>
        </mxCell>
        <mxCell id="4KUUrjR7wUPR5Dd_-c16-86" value="articleid" style="shape=partialRectangle;connectable=0;fillColor=#f8cecc;top=0;left=0;bottom=0;right=0;align=left;spacingLeft=6;fontStyle=5;overflow=hidden;gradientColor=#ea6b66;strokeColor=#b85450;" parent="4KUUrjR7wUPR5Dd_-c16-84" vertex="1">
          <mxGeometry x="60" width="120" height="30" as="geometry">
            <mxRectangle width="120" height="30" as="alternateBounds" />
          </mxGeometry>
        </mxCell>
        <mxCell id="4KUUrjR7wUPR5Dd_-c16-96" value="Tags" style="shape=table;startSize=30;container=1;collapsible=1;childLayout=tableLayout;fixedRows=1;rowLines=0;fontStyle=1;align=center;resizeLast=1;swimlaneFillColor=default;fillColor=#f8cecc;gradientColor=#ea6b66;strokeColor=#b85450;" parent="1" vertex="1">
          <mxGeometry x="-250" y="240" width="180" height="100" as="geometry" />
        </mxCell>
        <mxCell id="4KUUrjR7wUPR5Dd_-c16-97" value="" style="shape=partialRectangle;collapsible=0;dropTarget=0;pointerEvents=0;fillColor=#f8cecc;top=0;left=0;bottom=1;right=0;points=[[0,0.5],[1,0.5]];portConstraint=eastwest;gradientColor=#ea6b66;strokeColor=#b85450;" parent="4KUUrjR7wUPR5Dd_-c16-96" vertex="1">
          <mxGeometry y="30" width="180" height="30" as="geometry" />
        </mxCell>
        <mxCell id="4KUUrjR7wUPR5Dd_-c16-98" value="PK" style="shape=partialRectangle;connectable=0;fillColor=#f8cecc;top=0;left=0;bottom=0;right=0;fontStyle=1;overflow=hidden;gradientColor=#ea6b66;strokeColor=#b85450;" parent="4KUUrjR7wUPR5Dd_-c16-97" vertex="1">
          <mxGeometry width="30" height="30" as="geometry">
            <mxRectangle width="30" height="30" as="alternateBounds" />
          </mxGeometry>
        </mxCell>
        <mxCell id="4KUUrjR7wUPR5Dd_-c16-99" value="tagid" style="shape=partialRectangle;connectable=0;fillColor=#f8cecc;top=0;left=0;bottom=0;right=0;align=left;spacingLeft=6;fontStyle=5;overflow=hidden;gradientColor=#ea6b66;strokeColor=#b85450;" parent="4KUUrjR7wUPR5Dd_-c16-97" vertex="1">
          <mxGeometry x="30" width="150" height="30" as="geometry">
            <mxRectangle width="150" height="30" as="alternateBounds" />
          </mxGeometry>
        </mxCell>
        <mxCell id="4KUUrjR7wUPR5Dd_-c16-100" value="" style="shape=partialRectangle;collapsible=0;dropTarget=0;pointerEvents=0;fillColor=#f8cecc;top=0;left=0;bottom=0;right=0;points=[[0,0.5],[1,0.5]];portConstraint=eastwest;gradientColor=#ea6b66;strokeColor=#b85450;" parent="4KUUrjR7wUPR5Dd_-c16-96" vertex="1">
          <mxGeometry y="60" width="180" height="30" as="geometry" />
        </mxCell>
        <mxCell id="4KUUrjR7wUPR5Dd_-c16-101" value="" style="shape=partialRectangle;connectable=0;fillColor=#f8cecc;top=0;left=0;bottom=0;right=0;editable=1;overflow=hidden;gradientColor=#ea6b66;strokeColor=#b85450;" parent="4KUUrjR7wUPR5Dd_-c16-100" vertex="1">
          <mxGeometry width="30" height="30" as="geometry">
            <mxRectangle width="30" height="30" as="alternateBounds" />
          </mxGeometry>
        </mxCell>
        <mxCell id="4KUUrjR7wUPR5Dd_-c16-102" value="Tag name" style="shape=partialRectangle;connectable=0;fillColor=#f8cecc;top=0;left=0;bottom=0;right=0;align=left;spacingLeft=6;overflow=hidden;gradientColor=#ea6b66;strokeColor=#b85450;" parent="4KUUrjR7wUPR5Dd_-c16-100" vertex="1">
          <mxGeometry x="30" width="150" height="30" as="geometry">
            <mxRectangle width="150" height="30" as="alternateBounds" />
          </mxGeometry>
        </mxCell>
        <mxCell id="4KUUrjR7wUPR5Dd_-c16-106" value="Article-Tag" style="shape=table;startSize=30;container=1;collapsible=1;childLayout=tableLayout;fixedRows=1;rowLines=0;fontStyle=1;align=center;resizeLast=1;swimlaneFillColor=default;fillColor=#f8cecc;gradientColor=#ea6b66;strokeColor=#b85450;" parent="1" vertex="1">
          <mxGeometry x="10" y="240" width="180" height="130" as="geometry" />
        </mxCell>
        <mxCell id="4KUUrjR7wUPR5Dd_-c16-107" value="" style="shape=partialRectangle;collapsible=0;dropTarget=0;pointerEvents=0;fillColor=#f8cecc;top=0;left=0;bottom=0;right=0;points=[[0,0.5],[1,0.5]];portConstraint=eastwest;gradientColor=#ea6b66;strokeColor=#b85450;" parent="4KUUrjR7wUPR5Dd_-c16-106" vertex="1">
          <mxGeometry y="30" width="180" height="30" as="geometry" />
        </mxCell>
        <mxCell id="4KUUrjR7wUPR5Dd_-c16-108" value="PK" style="shape=partialRectangle;connectable=0;fillColor=#f8cecc;top=0;left=0;bottom=0;right=0;fontStyle=1;overflow=hidden;gradientColor=#ea6b66;strokeColor=#b85450;" parent="4KUUrjR7wUPR5Dd_-c16-107" vertex="1">
          <mxGeometry width="60" height="30" as="geometry">
            <mxRectangle width="60" height="30" as="alternateBounds" />
          </mxGeometry>
        </mxCell>
        <mxCell id="4KUUrjR7wUPR5Dd_-c16-109" value="AI NN" style="shape=partialRectangle;connectable=0;fillColor=#f8cecc;top=0;left=0;bottom=0;right=0;align=left;spacingLeft=6;fontStyle=5;overflow=hidden;gradientColor=#ea6b66;strokeColor=#b85450;" parent="4KUUrjR7wUPR5Dd_-c16-107" vertex="1">
          <mxGeometry x="60" width="120" height="30" as="geometry">
            <mxRectangle width="120" height="30" as="alternateBounds" />
          </mxGeometry>
        </mxCell>
        <mxCell id="4KUUrjR7wUPR5Dd_-c16-110" style="shape=partialRectangle;collapsible=0;dropTarget=0;pointerEvents=0;fillColor=#f8cecc;top=0;left=0;bottom=0;right=0;points=[[0,0.5],[1,0.5]];portConstraint=eastwest;gradientColor=#ea6b66;strokeColor=#b85450;" parent="4KUUrjR7wUPR5Dd_-c16-106" vertex="1">
          <mxGeometry y="60" width="180" height="30" as="geometry" />
        </mxCell>
        <mxCell id="4KUUrjR7wUPR5Dd_-c16-111" value="FK" style="shape=partialRectangle;connectable=0;fillColor=#f8cecc;top=0;left=0;bottom=0;right=0;fontStyle=1;overflow=hidden;gradientColor=#ea6b66;strokeColor=#b85450;" parent="4KUUrjR7wUPR5Dd_-c16-110" vertex="1">
          <mxGeometry width="60" height="30" as="geometry">
            <mxRectangle width="60" height="30" as="alternateBounds" />
          </mxGeometry>
        </mxCell>
        <mxCell id="4KUUrjR7wUPR5Dd_-c16-112" value="tagid" style="shape=partialRectangle;connectable=0;fillColor=#f8cecc;top=0;left=0;bottom=0;right=0;align=left;spacingLeft=6;fontStyle=5;overflow=hidden;gradientColor=#ea6b66;strokeColor=#b85450;" parent="4KUUrjR7wUPR5Dd_-c16-110" vertex="1">
          <mxGeometry x="60" width="120" height="30" as="geometry">
            <mxRectangle width="120" height="30" as="alternateBounds" />
          </mxGeometry>
        </mxCell>
        <mxCell id="4KUUrjR7wUPR5Dd_-c16-113" value="" style="shape=partialRectangle;collapsible=0;dropTarget=0;pointerEvents=0;fillColor=#f8cecc;top=0;left=0;bottom=1;right=0;points=[[0,0.5],[1,0.5]];portConstraint=eastwest;gradientColor=#ea6b66;strokeColor=#b85450;" parent="4KUUrjR7wUPR5Dd_-c16-106" vertex="1">
          <mxGeometry y="90" width="180" height="30" as="geometry" />
        </mxCell>
        <mxCell id="4KUUrjR7wUPR5Dd_-c16-114" value="FK" style="shape=partialRectangle;connectable=0;fillColor=#f8cecc;top=0;left=0;bottom=0;right=0;fontStyle=1;overflow=hidden;gradientColor=#ea6b66;strokeColor=#b85450;" parent="4KUUrjR7wUPR5Dd_-c16-113" vertex="1">
          <mxGeometry width="60" height="30" as="geometry">
            <mxRectangle width="60" height="30" as="alternateBounds" />
          </mxGeometry>
        </mxCell>
        <mxCell id="4KUUrjR7wUPR5Dd_-c16-115" value="articleid" style="shape=partialRectangle;connectable=0;fillColor=#f8cecc;top=0;left=0;bottom=0;right=0;align=left;spacingLeft=6;fontStyle=5;overflow=hidden;gradientColor=#ea6b66;strokeColor=#b85450;" parent="4KUUrjR7wUPR5Dd_-c16-113" vertex="1">
          <mxGeometry x="60" width="120" height="30" as="geometry">
            <mxRectangle width="120" height="30" as="alternateBounds" />
          </mxGeometry>
        </mxCell>
        <mxCell id="4KUUrjR7wUPR5Dd_-c16-123" value="" style="edgeStyle=entityRelationEdgeStyle;fontSize=12;html=1;endArrow=ERoneToMany;rounded=0;" parent="1" source="PuS1e93DzxdC0OhlP6du-22" target="4KUUrjR7wUPR5Dd_-c16-17" edge="1">
          <mxGeometry width="100" height="100" relative="1" as="geometry">
            <mxPoint x="800" y="115" as="sourcePoint" />
            <mxPoint x="700" y="415" as="targetPoint" />
          </mxGeometry>
        </mxCell>
        <mxCell id="4KUUrjR7wUPR5Dd_-c16-124" value="" style="edgeStyle=entityRelationEdgeStyle;fontSize=12;html=1;endArrow=ERmany;startArrow=ERmany;rounded=0;" parent="1" source="4KUUrjR7wUPR5Dd_-c16-52" target="PuS1e93DzxdC0OhlP6du-3" edge="1">
          <mxGeometry width="100" height="100" relative="1" as="geometry">
            <mxPoint x="360" y="320" as="sourcePoint" />
            <mxPoint x="1050" y="220" as="targetPoint" />
          </mxGeometry>
        </mxCell>
        <mxCell id="4KUUrjR7wUPR5Dd_-c16-125" value="" style="edgeStyle=entityRelationEdgeStyle;fontSize=12;html=1;endArrow=ERmany;startArrow=ERmany;rounded=0;entryX=1;entryY=0.5;entryDx=0;entryDy=0;" parent="1" source="4KUUrjR7wUPR5Dd_-c16-52" target="PuS1e93DzxdC0OhlP6du-22" edge="1">
          <mxGeometry width="100" height="100" relative="1" as="geometry">
            <mxPoint x="962" y="455" as="sourcePoint" />
            <mxPoint x="954" y="115" as="targetPoint" />
          </mxGeometry>
        </mxCell>
        <mxCell id="4KUUrjR7wUPR5Dd_-c16-127" value="Follower Details" style="shape=table;startSize=30;container=1;collapsible=1;childLayout=tableLayout;fixedRows=1;rowLines=0;fontStyle=1;align=center;resizeLast=1;swimlaneFillColor=default;fillColor=#f8cecc;strokeColor=#b85450;gradientColor=#ea6b66;" parent="1" vertex="1">
          <mxGeometry x="777" y="520" width="180" height="130" as="geometry" />
        </mxCell>
        <mxCell id="4KUUrjR7wUPR5Dd_-c16-128" value="" style="shape=partialRectangle;collapsible=0;dropTarget=0;pointerEvents=0;fillColor=#f8cecc;top=0;left=0;bottom=0;right=0;points=[[0,0.5],[1,0.5]];portConstraint=eastwest;strokeColor=#b85450;gradientColor=#ea6b66;" parent="4KUUrjR7wUPR5Dd_-c16-127" vertex="1">
          <mxGeometry y="30" width="180" height="30" as="geometry" />
        </mxCell>
        <mxCell id="4KUUrjR7wUPR5Dd_-c16-129" value="PK" style="shape=partialRectangle;connectable=0;fillColor=#f8cecc;top=0;left=0;bottom=0;right=0;fontStyle=1;overflow=hidden;strokeColor=#b85450;gradientColor=#ea6b66;" parent="4KUUrjR7wUPR5Dd_-c16-128" vertex="1">
          <mxGeometry width="60" height="30" as="geometry">
            <mxRectangle width="60" height="30" as="alternateBounds" />
          </mxGeometry>
        </mxCell>
        <mxCell id="4KUUrjR7wUPR5Dd_-c16-130" value="AI NN" style="shape=partialRectangle;connectable=0;fillColor=#f8cecc;top=0;left=0;bottom=0;right=0;align=left;spacingLeft=6;fontStyle=5;overflow=hidden;strokeColor=#b85450;gradientColor=#ea6b66;" parent="4KUUrjR7wUPR5Dd_-c16-128" vertex="1">
          <mxGeometry x="60" width="120" height="30" as="geometry">
            <mxRectangle width="120" height="30" as="alternateBounds" />
          </mxGeometry>
        </mxCell>
        <mxCell id="4KUUrjR7wUPR5Dd_-c16-140" style="shape=partialRectangle;collapsible=0;dropTarget=0;pointerEvents=0;fillColor=#f8cecc;top=0;left=0;bottom=0;right=0;points=[[0,0.5],[1,0.5]];portConstraint=eastwest;strokeColor=#b85450;gradientColor=#ea6b66;" parent="4KUUrjR7wUPR5Dd_-c16-127" vertex="1">
          <mxGeometry y="60" width="180" height="30" as="geometry" />
        </mxCell>
        <mxCell id="4KUUrjR7wUPR5Dd_-c16-141" value="FK" style="shape=partialRectangle;connectable=0;fillColor=#f8cecc;top=0;left=0;bottom=0;right=0;fontStyle=1;overflow=hidden;strokeColor=#b85450;gradientColor=#ea6b66;" parent="4KUUrjR7wUPR5Dd_-c16-140" vertex="1">
          <mxGeometry width="60" height="30" as="geometry">
            <mxRectangle width="60" height="30" as="alternateBounds" />
          </mxGeometry>
        </mxCell>
        <mxCell id="4KUUrjR7wUPR5Dd_-c16-142" value="FollowerId" style="shape=partialRectangle;connectable=0;fillColor=#f8cecc;top=0;left=0;bottom=0;right=0;align=left;spacingLeft=6;fontStyle=5;overflow=hidden;strokeColor=#b85450;gradientColor=#ea6b66;" parent="4KUUrjR7wUPR5Dd_-c16-140" vertex="1">
          <mxGeometry x="60" width="120" height="30" as="geometry">
            <mxRectangle width="120" height="30" as="alternateBounds" />
          </mxGeometry>
        </mxCell>
        <mxCell id="4KUUrjR7wUPR5Dd_-c16-131" value="" style="shape=partialRectangle;collapsible=0;dropTarget=0;pointerEvents=0;fillColor=#f8cecc;top=0;left=0;bottom=1;right=0;points=[[0,0.5],[1,0.5]];portConstraint=eastwest;strokeColor=#b85450;gradientColor=#ea6b66;" parent="4KUUrjR7wUPR5Dd_-c16-127" vertex="1">
          <mxGeometry y="90" width="180" height="30" as="geometry" />
        </mxCell>
        <mxCell id="4KUUrjR7wUPR5Dd_-c16-132" value="FK" style="shape=partialRectangle;connectable=0;fillColor=#f8cecc;top=0;left=0;bottom=0;right=0;fontStyle=1;overflow=hidden;strokeColor=#b85450;gradientColor=#ea6b66;" parent="4KUUrjR7wUPR5Dd_-c16-131" vertex="1">
          <mxGeometry width="60" height="30" as="geometry">
            <mxRectangle width="60" height="30" as="alternateBounds" />
          </mxGeometry>
        </mxCell>
        <mxCell id="4KUUrjR7wUPR5Dd_-c16-133" value="FollowingId" style="shape=partialRectangle;connectable=0;fillColor=#f8cecc;top=0;left=0;bottom=0;right=0;align=left;spacingLeft=6;fontStyle=5;overflow=hidden;strokeColor=#b85450;gradientColor=#ea6b66;" parent="4KUUrjR7wUPR5Dd_-c16-131" vertex="1">
          <mxGeometry x="60" width="120" height="30" as="geometry">
            <mxRectangle width="120" height="30" as="alternateBounds" />
          </mxGeometry>
        </mxCell>
        <mxCell id="4KUUrjR7wUPR5Dd_-c16-145" style="edgeStyle=orthogonalEdgeStyle;rounded=0;orthogonalLoop=1;jettySize=auto;html=1;entryX=0;entryY=0.5;entryDx=0;entryDy=0;fillColor=#f8cecc;gradientColor=#ea6b66;strokeColor=#b85450;" parent="1" source="4KUUrjR7wUPR5Dd_-c16-68" target="4KUUrjR7wUPR5Dd_-c16-81" edge="1">
          <mxGeometry relative="1" as="geometry" />
        </mxCell>
        <mxCell id="4KUUrjR7wUPR5Dd_-c16-146" style="edgeStyle=orthogonalEdgeStyle;rounded=0;orthogonalLoop=1;jettySize=auto;html=1;entryX=0;entryY=0.5;entryDx=0;entryDy=0;" parent="1" source="4KUUrjR7wUPR5Dd_-c16-81" target="PuS1e93DzxdC0OhlP6du-22" edge="1">
          <mxGeometry relative="1" as="geometry" />
        </mxCell>
        <mxCell id="4KUUrjR7wUPR5Dd_-c16-147" style="edgeStyle=orthogonalEdgeStyle;rounded=0;orthogonalLoop=1;jettySize=auto;html=1;exitX=1;exitY=0.5;exitDx=0;exitDy=0;fillColor=#f8cecc;gradientColor=#ea6b66;strokeColor=#b85450;" parent="1" source="4KUUrjR7wUPR5Dd_-c16-97" target="4KUUrjR7wUPR5Dd_-c16-107" edge="1">
          <mxGeometry relative="1" as="geometry" />
        </mxCell>
        <mxCell id="4KUUrjR7wUPR5Dd_-c16-148" style="edgeStyle=orthogonalEdgeStyle;rounded=0;orthogonalLoop=1;jettySize=auto;html=1;" parent="1" source="4KUUrjR7wUPR5Dd_-c16-107" target="PuS1e93DzxdC0OhlP6du-22" edge="1">
          <mxGeometry relative="1" as="geometry" />
        </mxCell>
        <mxCell id="4KUUrjR7wUPR5Dd_-c16-152" value="" style="edgeStyle=entityRelationEdgeStyle;fontSize=12;html=1;endArrow=ERone;endFill=1;rounded=0;" parent="1" source="4KUUrjR7wUPR5Dd_-c16-36" target="PuS1e93DzxdC0OhlP6du-22" edge="1">
          <mxGeometry width="100" height="100" relative="1" as="geometry">
            <mxPoint x="300" y="435" as="sourcePoint" />
            <mxPoint x="820" y="135" as="targetPoint" />
          </mxGeometry>
        </mxCell>
        <mxCell id="RR4MUkR7uNCViGrxhAKd-1" value="Comment Likes" style="shape=table;startSize=30;container=1;collapsible=1;childLayout=tableLayout;fixedRows=1;rowLines=0;fontStyle=1;align=center;resizeLast=1;swimlaneFillColor=default;fillColor=#f8cecc;gradientColor=#ea6b66;strokeColor=#b85450;" parent="1" vertex="1">
          <mxGeometry x="353.5" y="630" width="180" height="130" as="geometry" />
        </mxCell>
        <mxCell id="RR4MUkR7uNCViGrxhAKd-2" value="" style="shape=partialRectangle;collapsible=0;dropTarget=0;pointerEvents=0;fillColor=#f8cecc;top=0;left=0;bottom=0;right=0;points=[[0,0.5],[1,0.5]];portConstraint=eastwest;gradientColor=#ea6b66;strokeColor=#b85450;" parent="RR4MUkR7uNCViGrxhAKd-1" vertex="1">
          <mxGeometry y="30" width="180" height="30" as="geometry" />
        </mxCell>
        <mxCell id="RR4MUkR7uNCViGrxhAKd-3" value="PK" style="shape=partialRectangle;connectable=0;fillColor=#f8cecc;top=0;left=0;bottom=0;right=0;fontStyle=1;overflow=hidden;gradientColor=#ea6b66;strokeColor=#b85450;" parent="RR4MUkR7uNCViGrxhAKd-2" vertex="1">
          <mxGeometry width="60" height="30" as="geometry">
            <mxRectangle width="60" height="30" as="alternateBounds" />
          </mxGeometry>
        </mxCell>
        <mxCell id="RR4MUkR7uNCViGrxhAKd-4" value="(Auto Increment) &#xa;(Not Null)" style="shape=partialRectangle;connectable=0;fillColor=#f8cecc;top=0;left=0;bottom=0;right=0;align=left;spacingLeft=6;fontStyle=5;overflow=hidden;gradientColor=#ea6b66;strokeColor=#b85450;" parent="RR4MUkR7uNCViGrxhAKd-2" vertex="1">
          <mxGeometry x="60" width="120" height="30" as="geometry">
            <mxRectangle width="120" height="30" as="alternateBounds" />
          </mxGeometry>
        </mxCell>
        <mxCell id="RR4MUkR7uNCViGrxhAKd-5" style="shape=partialRectangle;collapsible=0;dropTarget=0;pointerEvents=0;fillColor=#f8cecc;top=0;left=0;bottom=0;right=0;points=[[0,0.5],[1,0.5]];portConstraint=eastwest;gradientColor=#ea6b66;strokeColor=#b85450;" parent="RR4MUkR7uNCViGrxhAKd-1" vertex="1">
          <mxGeometry y="60" width="180" height="30" as="geometry" />
        </mxCell>
        <mxCell id="RR4MUkR7uNCViGrxhAKd-6" value="FK" style="shape=partialRectangle;connectable=0;fillColor=#f8cecc;top=0;left=0;bottom=0;right=0;fontStyle=1;overflow=hidden;gradientColor=#ea6b66;strokeColor=#b85450;" parent="RR4MUkR7uNCViGrxhAKd-5" vertex="1">
          <mxGeometry width="60" height="30" as="geometry">
            <mxRectangle width="60" height="30" as="alternateBounds" />
          </mxGeometry>
        </mxCell>
        <mxCell id="RR4MUkR7uNCViGrxhAKd-7" value="commentid" style="shape=partialRectangle;connectable=0;fillColor=#f8cecc;top=0;left=0;bottom=0;right=0;align=left;spacingLeft=6;fontStyle=5;overflow=hidden;gradientColor=#ea6b66;strokeColor=#b85450;" parent="RR4MUkR7uNCViGrxhAKd-5" vertex="1">
          <mxGeometry x="60" width="120" height="30" as="geometry">
            <mxRectangle width="120" height="30" as="alternateBounds" />
          </mxGeometry>
        </mxCell>
        <mxCell id="RR4MUkR7uNCViGrxhAKd-8" value="" style="shape=partialRectangle;collapsible=0;dropTarget=0;pointerEvents=0;fillColor=#f8cecc;top=0;left=0;bottom=1;right=0;points=[[0,0.5],[1,0.5]];portConstraint=eastwest;gradientColor=#ea6b66;strokeColor=#b85450;" parent="RR4MUkR7uNCViGrxhAKd-1" vertex="1">
          <mxGeometry y="90" width="180" height="30" as="geometry" />
        </mxCell>
        <mxCell id="RR4MUkR7uNCViGrxhAKd-9" value="FK" style="shape=partialRectangle;connectable=0;fillColor=#f8cecc;top=0;left=0;bottom=0;right=0;fontStyle=1;overflow=hidden;gradientColor=#ea6b66;strokeColor=#b85450;" parent="RR4MUkR7uNCViGrxhAKd-8" vertex="1">
          <mxGeometry width="60" height="30" as="geometry">
            <mxRectangle width="60" height="30" as="alternateBounds" />
          </mxGeometry>
        </mxCell>
        <mxCell id="RR4MUkR7uNCViGrxhAKd-10" value="userid" style="shape=partialRectangle;connectable=0;fillColor=#f8cecc;top=0;left=0;bottom=0;right=0;align=left;spacingLeft=6;fontStyle=5;overflow=hidden;gradientColor=#ea6b66;strokeColor=#b85450;" parent="RR4MUkR7uNCViGrxhAKd-8" vertex="1">
          <mxGeometry x="60" width="120" height="30" as="geometry">
            <mxRectangle width="120" height="30" as="alternateBounds" />
          </mxGeometry>
        </mxCell>
        <mxCell id="RR4MUkR7uNCViGrxhAKd-11" value="" style="edgeStyle=entityRelationEdgeStyle;fontSize=12;html=1;endArrow=ERmandOne;startArrow=ERmandOne;rounded=0;" parent="1" source="RR4MUkR7uNCViGrxhAKd-2" target="4KUUrjR7wUPR5Dd_-c16-17" edge="1">
          <mxGeometry width="100" height="100" relative="1" as="geometry">
            <mxPoint x="650" y="650" as="sourcePoint" />
            <mxPoint x="750" y="550" as="targetPoint" />
          </mxGeometry>
        </mxCell>
        <mxCell id="RR4MUkR7uNCViGrxhAKd-12" value="" style="edgeStyle=entityRelationEdgeStyle;fontSize=12;html=1;endArrow=ERmandOne;startArrow=ERmandOne;rounded=0;" parent="1" source="PuS1e93DzxdC0OhlP6du-3" target="RR4MUkR7uNCViGrxhAKd-2" edge="1">
          <mxGeometry width="100" height="100" relative="1" as="geometry">
            <mxPoint x="363.5" y="685" as="sourcePoint" />
            <mxPoint x="185" y="465" as="targetPoint" />
          </mxGeometry>
        </mxCell>
        <mxCell id="RR4MUkR7uNCViGrxhAKd-13" value="" style="edgeStyle=entityRelationEdgeStyle;fontSize=12;html=1;endArrow=ERmandOne;startArrow=ERmandOne;rounded=0;" parent="1" source="PuS1e93DzxdC0OhlP6du-3" target="4KUUrjR7wUPR5Dd_-c16-128" edge="1">
          <mxGeometry width="100" height="100" relative="1" as="geometry">
            <mxPoint x="810" y="580" as="sourcePoint" />
            <mxPoint x="910" y="480" as="targetPoint" />
          </mxGeometry>
        </mxCell>
        <mxCell id="CVnb1ybL3EXmDokblRuQ-1" value="" style="whiteSpace=wrap;html=1;aspect=fixed;fillColor=#f8cecc;gradientColor=#ea6b66;strokeColor=#b85450;" vertex="1" parent="1">
          <mxGeometry x="-250" y="410" width="40" height="40" as="geometry" />
        </mxCell>
        <mxCell id="CVnb1ybL3EXmDokblRuQ-2" value="Deprecated" style="text;html=1;strokeColor=none;fillColor=none;align=center;verticalAlign=middle;whiteSpace=wrap;rounded=0;fontSize=21;fontStyle=1;fontFamily=monospace;fontSource=https%3A%2F%2Ffonts.googleapis.com%2Fcss%3Ffamily%3Dmonospace;" vertex="1" parent="1">
          <mxGeometry x="-210" y="415" width="130" height="30" as="geometry" />
        </mxCell>
      </root>
    </mxGraphModel>
  </diagram>
</mxfile>
